<?xml version="1.0" encoding="UTF-8"?>
<svg version="1.1" xmlns="http://www.w3.org/2000/svg" width="512" height="512">
<path d="M0 0 C1.10453522 -0.00524185 2.20907043 -0.0104837 3.34707642 -0.0158844 C5.67864137 -0.02229472 8.01023871 -0.02098048 10.34179688 -0.01245117 C13.89512219 -0.00395156 17.44683373 -0.03270205 21 -0.06445312 C23.27083285 -0.06606563 25.54166854 -0.06548666 27.8125 -0.0625 C29.3956752 -0.07935097 29.3956752 -0.07935097 31.01083374 -0.09654236 C38.42355825 -0.02707953 44.11642016 1.04991888 49.59765625 6.46875 C50.05269531 7.13777344 50.50773438 7.80679687 50.9765625 8.49609375 C51.44964844 9.16769531 51.92273438 9.83929688 52.41015625 10.53125 C56.75367843 17.8506109 54.86318091 27.89033854 53.0390625 35.74609375 C52.55348948 37.64567341 52.05887205 39.54309592 51.5390625 41.43359375 C52.83714844 41.54445312 54.13523437 41.6553125 55.47265625 41.76953125 C60.3971475 42.32172074 64.90109549 43.52411935 69.6015625 45.05859375 C70.42446777 45.32438232 71.24737305 45.5901709 72.09521484 45.86401367 C80.16005086 48.53493691 87.893082 51.73881639 95.5390625 55.43359375 C96.22178223 55.76198242 96.90450195 56.09037109 97.60791016 56.42871094 C142.04497095 78.11688012 174.92002217 117.20514913 191.5390625 163.43359375 C197.58517768 181.49891123 201.39292314 200.33241506 200.5390625 219.43359375 C201.8384375 219.35109375 203.1378125 219.26859375 204.4765625 219.18359375 C210.83188808 219.2235016 215.86299388 220.99199971 220.58984375 225.3046875 C226.95853151 232.27991696 228.10115282 238.09801177 227.84765625 247.44921875 C226.85930451 260.21021592 220.98756442 272.06122425 211.609375 280.80859375 C199.58954248 290.24302833 188.25328827 292.88892467 173.25726318 292.82800293 C171.82729975 292.83289934 170.39734027 292.83909259 168.96738744 292.84646082 C165.06060325 292.8627887 161.1540218 292.86055709 157.24721551 292.85508585 C153.02483693 292.85240676 148.80251133 292.86696395 144.58015442 292.87918091 C136.31635777 292.90020056 128.05263134 292.90477773 119.78881112 292.90299302 C113.0686231 292.90168357 106.34845692 292.90549889 99.62827301 292.91291809 C97.68989094 292.91501737 95.75150887 292.91711497 93.8131268 292.91921091 C92.3657746 292.9207762 92.3657746 292.9207762 90.88918296 292.92237312 C72.65374526 292.94126175 54.41834782 292.94022961 36.18290439 292.93340379 C19.51899633 292.9278302 2.8552421 292.94864838 -13.80863002 292.98176426 C-30.93775541 293.01553928 -48.06680719 293.03066479 -65.19596648 293.02604723 C-74.80516258 293.02380629 -84.41421653 293.02899066 -94.02338409 293.05393982 C-102.20498227 293.07500231 -110.38636037 293.07849606 -118.56796774 293.05964023 C-122.73791772 293.05051253 -126.90745791 293.04924755 -131.07737541 293.06999588 C-134.90340643 293.08882166 -138.72869537 293.08407455 -142.55469915 293.06145006 C-144.57593398 293.05534163 -146.59719859 293.07356291 -148.61834931 293.09298658 C-163.01094016 292.95489892 -174.89545853 288.27835064 -185.4609375 278.43359375 C-194.96557178 268.02752161 -199.8826529 255.01201067 -199.671875 240.953125 C-199.07839327 233.8643154 -195.83696574 228.06002328 -190.4609375 223.43359375 C-184.52167001 219.64185801 -179.40091455 218.99296029 -172.4609375 219.43359375 C-172.48414063 218.16773438 -172.50734375 216.901875 -172.53125 215.59765625 C-172.48011019 171.90720935 -152.45500014 126.99734825 -122.02490234 96.03710938 C-120.41248232 94.38391319 -118.83675306 92.70051347 -117.26171875 91.01171875 C-92.50036024 64.86987262 -58.53141193 47.75093931 -23.4609375 40.43359375 C-23.6775 39.53898437 -23.8940625 38.644375 -24.1171875 37.72265625 C-28.51368862 18.63044306 -28.51368862 18.63044306 -23.66015625 10.18359375 C-17.42954646 1.09136839 -10.30583343 -0.02855521 0 0 Z " fill="#E6E5FC" transform="translate(277.4609375,5.56640625)"/>
<path d="M0 0 C1.32752927 0.50095864 2.65537224 1.00108668 3.98350525 1.5004425 C7.49862053 2.82478382 11.00926747 4.16057902 14.51889038 5.49939728 C18.1420229 6.87992707 21.76846782 8.25170309 25.39453125 9.62451172 C29.6962506 11.2539365 33.99739311 12.88483802 38.29641724 14.5213623 C46.05750557 17.47558764 53.82834496 20.40084803 61.6171875 23.28125 C63.92649551 24.14108444 66.23526903 25.00232894 68.54367065 25.86459351 C69.90791629 26.37164886 71.27370601 26.87457276 72.6411438 27.37295532 C81.53485185 30.61923239 90.13877686 34.03056751 95.43359375 42.32421875 C96.10841797 43.33935547 96.10841797 43.33935547 96.796875 44.375 C98.67394978 48.11253828 99.87961903 52.02507959 101.12109375 56.01171875 C118.92998605 45.1063998 118.92998605 45.1063998 136.62109375 34.01171875 C147.32394025 27.21461689 158.1295733 20.58392494 168.94433594 13.96679688 C171.15544544 12.60600953 173.35868364 11.23663331 175.55566406 9.85351562 C176.12709137 9.49598206 176.69851868 9.13844849 177.28726196 8.77008057 C178.87275507 7.77739256 180.45527914 6.77996699 182.03759766 5.78222656 C187.93668951 2.39503621 193.09052185 0.46942505 199.99609375 0.57421875 C201.0488147 0.58557861 201.0488147 0.58557861 202.12280273 0.59716797 C210.4334836 0.86045003 216.4599181 3.67786792 222.55078125 9.23046875 C229.21667984 16.79178655 230.75835232 25.0274883 230.515625 34.7890625 C230.06308982 41.88730863 227.42231137 48.01949992 222.11791992 52.82739258 C216.04360151 57.82084956 209.57543482 62.19373263 203.00585938 66.50341797 C199.72603594 68.65569225 196.45757878 70.82514866 193.1875 72.9921875 C192.47651154 73.46280609 191.76552307 73.93342468 191.0329895 74.41830444 C182.45516424 80.10283665 173.93213321 85.86849508 165.40591431 91.63000488 C149.20949409 102.57398777 132.98589835 113.47475366 116.70454407 124.29193115 C112.60835308 127.01586169 108.52212112 129.75433904 104.43969727 132.49885559 C101.38977405 134.54887221 98.33756029 136.59546483 95.28521729 138.64187622 C93.8159744 139.62825165 92.34780984 140.61623544 90.88079834 141.60592651 C88.84781561 142.97719134 86.81106501 144.34268149 84.7734375 145.70703125 C84.17277969 146.11434982 83.57212189 146.5216684 82.95326233 146.94132996 C74.86568659 152.3345134 67.39567807 153.4606765 57.88117981 151.56557083 C51.60666967 150.07423854 45.43948563 148.20350841 39.26171875 146.359375 C37.26211898 145.77711761 35.26200676 145.19661748 33.26141357 144.61778259 C28.02618125 143.09905879 22.79684254 141.56103094 17.56890869 140.01739502 C9.19081177 137.54632576 0.80506576 135.10151703 -7.58264923 132.66332817 C-10.49676139 131.81264441 -13.40764751 130.95156787 -16.31829834 130.08912659 C-18.11542896 129.56309693 -19.91264538 129.03736029 -21.70996094 128.51196289 C-22.50809708 128.27243896 -23.30623322 128.03291504 -24.1285553 127.78613281 C-34.63736908 124.64882332 -34.63736908 124.64882332 -44.94140625 126.94921875 C-45.69550781 127.32949219 -46.44960937 127.70976562 -47.2265625 128.1015625 C-47.77183594 128.40191406 -48.31710938 128.70226562 -48.87890625 129.01171875 C-48.54890625 129.79546875 -48.21890625 130.57921875 -47.87890625 131.38671875 C-46.20431961 137.45709533 -46.00512907 142.70812437 -48.25390625 148.63671875 C-53.92559546 157.04646482 -64.31255417 162.46151264 -72.58203125 168.07421875 C-76.25611983 170.5730031 -79.88616322 173.12887392 -83.50488281 175.70703125 C-86.32608436 177.71299501 -89.16334388 179.6956679 -92 181.6796875 C-93.67651008 182.86823207 -95.32660494 184.09383696 -96.97265625 185.32421875 C-102.6853092 189.39530476 -106.91945414 190.77480283 -113.95703125 190.6484375 C-121.97429438 188.90136011 -125.61416208 184.37446171 -130.00390625 177.88671875 C-131.14155929 176.25885749 -132.27959073 174.63126062 -133.41796875 173.00390625 C-133.99192383 172.17342773 -134.56587891 171.34294922 -135.15722656 170.48730469 C-137.84445521 166.62336559 -140.61321675 162.81967355 -143.37890625 159.01171875 C-144.46267986 157.51203683 -145.54601214 156.01203587 -146.62890625 154.51171875 C-147.43328125 153.39796875 -147.43328125 153.39796875 -148.25390625 152.26171875 C-149.87890625 150.01171875 -151.50390625 147.76171875 -153.12890625 145.51171875 C-153.66523682 144.76913818 -154.20156738 144.02655762 -154.75415039 143.26147461 C-155.83678879 141.76237425 -156.91930845 140.26318813 -158.00170898 138.76391602 C-160.71970448 134.99943707 -163.43978693 131.23649971 -166.1640625 127.4765625 C-175.60518757 114.43988846 -184.93032359 101.32678923 -194.06640625 88.07421875 C-194.53643066 87.39343262 -195.00645508 86.71264648 -195.49072266 86.01123047 C-198.51663278 81.6052791 -200.05160922 79.15857902 -200.19140625 73.82421875 C-200.22878906 72.90253906 -200.26617187 71.98085938 -200.3046875 71.03125 C-199.54456896 65.64068459 -197.08857914 62.13650231 -193.20703125 58.52734375 C-192.19125 57.7796875 -191.17546875 57.03203125 -190.12890625 56.26171875 C-189.56453857 55.84253174 -189.0001709 55.42334473 -188.41870117 54.99145508 C-183.4301352 51.32149468 -178.31903095 47.82113946 -173.19458008 44.34448242 C-167.05679969 40.17460723 -161.05377879 35.82938285 -155.08129883 31.42651367 C-146.77191646 25.35227094 -140.58209288 21.36725564 -129.87890625 23.01171875 C-126.75607535 24.21167267 -124.20699702 25.59408603 -121.87890625 28.01171875 C-121.18180857 29.66588834 -120.51186787 31.33196228 -119.87890625 33.01171875 C-98.85878448 23.88321407 -77.85868618 14.71402465 -56.93457031 5.3671875 C-53.56360064 3.86180169 -50.189903 2.36272151 -46.81365967 0.86920166 C-45.51113339 0.29192188 -44.20959421 -0.28758971 -42.90899658 -0.86920166 C-41.01775699 -1.71382088 -39.12273161 -2.54933 -37.2265625 -3.3828125 C-36.14511963 -3.86210205 -35.06367676 -4.3413916 -33.94946289 -4.83520508 C-22.17103679 -9.25831921 -11.17101349 -4.28280739 0 0 Z " fill="#FEFEFE" transform="translate(206.87890625,315.98828125)"/>
<path d="M0 0 C1.10453522 -0.00524185 2.20907043 -0.0104837 3.34707642 -0.0158844 C5.67864137 -0.02229472 8.01023871 -0.02098048 10.34179688 -0.01245117 C13.89512219 -0.00395156 17.44683373 -0.03270205 21 -0.06445312 C23.27083285 -0.06606563 25.54166854 -0.06548666 27.8125 -0.0625 C29.3956752 -0.07935097 29.3956752 -0.07935097 31.01083374 -0.09654236 C38.42355825 -0.02707953 44.11642016 1.04991888 49.59765625 6.46875 C50.05269531 7.13777344 50.50773438 7.80679687 50.9765625 8.49609375 C51.44964844 9.16769531 51.92273438 9.83929688 52.41015625 10.53125 C56.75367843 17.8506109 54.86318091 27.89033854 53.0390625 35.74609375 C52.55348948 37.64567341 52.05887205 39.54309592 51.5390625 41.43359375 C52.83714844 41.54445312 54.13523437 41.6553125 55.47265625 41.76953125 C60.3971475 42.32172074 64.90109549 43.52411935 69.6015625 45.05859375 C70.42446777 45.32438232 71.24737305 45.5901709 72.09521484 45.86401367 C80.16005086 48.53493691 87.893082 51.73881639 95.5390625 55.43359375 C96.22178223 55.76198242 96.90450195 56.09037109 97.60791016 56.42871094 C142.04497095 78.11688012 174.92002217 117.20514913 191.5390625 163.43359375 C197.58517768 181.49891123 201.39292314 200.33241506 200.5390625 219.43359375 C201.8384375 219.35109375 203.1378125 219.26859375 204.4765625 219.18359375 C210.83188808 219.2235016 215.86299388 220.99199971 220.58984375 225.3046875 C226.95853151 232.27991696 228.10115282 238.09801177 227.84765625 247.44921875 C226.85930451 260.21021592 220.98756442 272.06122425 211.609375 280.80859375 C199.58954248 290.24302833 188.25328827 292.88892467 173.25726318 292.82800293 C171.82729975 292.83289934 170.39734027 292.83909259 168.96738744 292.84646082 C165.06060325 292.8627887 161.1540218 292.86055709 157.24721551 292.85508585 C153.02483693 292.85240676 148.80251133 292.86696395 144.58015442 292.87918091 C136.31635777 292.90020056 128.05263134 292.90477773 119.78881112 292.90299302 C113.0686231 292.90168357 106.34845692 292.90549889 99.62827301 292.91291809 C97.68989094 292.91501737 95.75150887 292.91711497 93.8131268 292.91921091 C92.3657746 292.9207762 92.3657746 292.9207762 90.88918296 292.92237312 C72.65374526 292.94126175 54.41834782 292.94022961 36.18290439 292.93340379 C19.51899633 292.9278302 2.8552421 292.94864838 -13.80863002 292.98176426 C-30.93775541 293.01553928 -48.06680719 293.03066479 -65.19596648 293.02604723 C-74.80516258 293.02380629 -84.41421653 293.02899066 -94.02338409 293.05393982 C-102.20498227 293.07500231 -110.38636037 293.07849606 -118.56796774 293.05964023 C-122.73791772 293.05051253 -126.90745791 293.04924755 -131.07737541 293.06999588 C-134.90340643 293.08882166 -138.72869537 293.08407455 -142.55469915 293.06145006 C-144.57593398 293.05534163 -146.59719859 293.07356291 -148.61834931 293.09298658 C-163.01094016 292.95489892 -174.89545853 288.27835064 -185.4609375 278.43359375 C-194.96557178 268.02752161 -199.8826529 255.01201067 -199.671875 240.953125 C-199.07839327 233.8643154 -195.83696574 228.06002328 -190.4609375 223.43359375 C-184.52167001 219.64185801 -179.40091455 218.99296029 -172.4609375 219.43359375 C-172.48414063 218.16773438 -172.50734375 216.901875 -172.53125 215.59765625 C-172.48011019 171.90720935 -152.45500014 126.99734825 -122.02490234 96.03710938 C-120.41248232 94.38391319 -118.83675306 92.70051347 -117.26171875 91.01171875 C-92.50036024 64.86987262 -58.53141193 47.75093931 -23.4609375 40.43359375 C-23.6775 39.53898437 -23.8940625 38.644375 -24.1171875 37.72265625 C-28.51368862 18.63044306 -28.51368862 18.63044306 -23.66015625 10.18359375 C-17.42954646 1.09136839 -10.30583343 -0.02855521 0 0 Z M-102.234375 91.359375 C-104.26046246 93.24683543 -106.33990655 95.02980086 -108.4609375 96.80859375 C-130.52344069 116.22888099 -145.13790031 142.92308737 -154.4609375 170.43359375 C-154.88117188 171.66464844 -155.30140625 172.89570313 -155.734375 174.1640625 C-157.80493928 180.80387952 -159.11185058 187.51494667 -160.2109375 194.37109375 C-160.40296753 195.53233765 -160.40296753 195.53233765 -160.59887695 196.71704102 C-161.73139152 204.46107825 -161.4609375 211.35911044 -161.4609375 219.43359375 C-45.3009375 219.43359375 70.8590625 219.43359375 190.5390625 219.43359375 C190.5390625 210.90007988 190.4200684 203.77687143 188.7890625 195.62109375 C188.60569336 194.67387451 188.42232422 193.72665527 188.23339844 192.75073242 C187.68598803 189.97447902 187.11639515 187.2037595 186.5390625 184.43359375 C186.31476563 183.32032715 186.31476563 183.32032715 186.0859375 182.18457031 C183.71064629 170.61052403 179.4358611 160.13778208 174.5390625 149.43359375 C174.09989502 148.46244629 174.09989502 148.46244629 173.65185547 147.47167969 C165.55634734 129.76659996 153.754726 114.6059467 140.5390625 100.43359375 C139.81460937 99.64339844 139.09015625 98.85320312 138.34375 98.0390625 C109.94947688 68.24913866 66.47467289 48.98031815 25.47924805 47.30883789 C-21.40481369 46.18462904 -67.3116925 58.76866315 -102.234375 91.359375 Z " fill="#9987FA" transform="translate(277.4609375,5.56640625)"/>
<path d="M0 0 C0.8048584 0.2587793 1.6097168 0.51755859 2.43896484 0.78417969 C22.16037094 7.25201159 40.70217765 16.03661726 57 29 C57.54027832 29.42748535 58.08055664 29.8549707 58.63720703 30.29541016 C65.1713958 35.52082512 71.3005014 41.11959554 77.25 47 C77.81146729 47.55212158 78.37293457 48.10424316 78.95141602 48.6730957 C81.35009595 51.09124362 82.90827078 52.72481233 84 56 C75.19964872 65.16145992 66.22632729 73.46367657 56 81 C55.37319336 81.47115234 54.74638672 81.94230469 54.10058594 82.42773438 C14.6379965 112 14.6379965 112 2 112 C2.6592003 107.92356593 4.00231137 104.43879443 5.5625 100.625 C9.05936227 90.87864335 9.69482334 81.46144781 5.9375 71.625 C1.34930381 62.08975428 -4.24127512 55.42918317 -14 51 C-18.99967482 49.28246465 -23.61731732 48.64569696 -28.875 48.6875 C-29.57536377 48.69023926 -30.27572754 48.69297852 -30.99731445 48.69580078 C-37.55801262 48.82800246 -42.67131227 50.30114821 -48.44921875 53.25 C-51 54 -51 54 -53.2265625 53.1015625 C-54.01804687 52.61429688 -54.80953125 52.12703125 -55.625 51.625 C-64.15332191 47.39560123 -74.76403577 47.51761275 -83.94140625 49.69921875 C-86.16643569 50.61631784 -88.01436804 51.64539514 -90 53 C-90.6909375 53.43570313 -91.381875 53.87140625 -92.09375 54.3203125 C-100.05579986 59.75708535 -105.78056592 67.56117081 -108 77 C-109.48550787 91.50643908 -106.27883983 104.836609 -98 117 C-94.83499584 120.8406792 -91.48752296 124.45168029 -88 128 C-86.71222656 129.31291016 -86.71222656 129.31291016 -85.3984375 130.65234375 C-83.54740933 132.46418077 -81.72595432 134.10203553 -79.6875 135.6875 C-78.800625 136.450625 -77.91375 137.21375 -77 138 C-77 138.66 -77 139.32 -77 140 C-119.0467627 152.17143131 -182.93596134 158.27414003 -223 137 C-223.30265232 131.17976299 -222.27810373 126.42215534 -220.5625 120.875 C-220.29663086 120.0089917 -220.03076172 119.1429834 -219.75683594 118.25073242 C-213.00628153 96.99183756 -203.07007265 77.35232451 -189 60 C-188.33943604 59.17918945 -188.33943604 59.17918945 -187.66552734 58.34179688 C-164.93427023 30.28944897 -133.25924864 8.0158703 -98 -1 C-97.36562012 -1.16838379 -96.73124023 -1.33676758 -96.07763672 -1.51025391 C-64.90685208 -9.72793874 -30.8239806 -9.98330002 0 0 Z " fill="#FDFDFE" transform="translate(342,60)"/>
<path d="M0 0 C1.32752927 0.50095864 2.65537224 1.00108668 3.98350525 1.5004425 C7.49862053 2.82478382 11.00926747 4.16057902 14.51889038 5.49939728 C18.1420229 6.87992707 21.76846782 8.25170309 25.39453125 9.62451172 C29.6962506 11.2539365 33.99739311 12.88483802 38.29641724 14.5213623 C46.05750557 17.47558764 53.82834496 20.40084803 61.6171875 23.28125 C63.92649551 24.14108444 66.23526903 25.00232894 68.54367065 25.86459351 C69.90791629 26.37164886 71.27370601 26.87457276 72.6411438 27.37295532 C81.53485185 30.61923239 90.13877686 34.03056751 95.43359375 42.32421875 C96.10841797 43.33935547 96.10841797 43.33935547 96.796875 44.375 C98.67394978 48.11253828 99.87961903 52.02507959 101.12109375 56.01171875 C118.92998605 45.1063998 118.92998605 45.1063998 136.62109375 34.01171875 C147.32394025 27.21461689 158.1295733 20.58392494 168.94433594 13.96679688 C171.15544544 12.60600953 173.35868364 11.23663331 175.55566406 9.85351562 C176.12709137 9.49598206 176.69851868 9.13844849 177.28726196 8.77008057 C178.87275507 7.77739256 180.45527914 6.77996699 182.03759766 5.78222656 C187.93668951 2.39503621 193.09052185 0.46942505 199.99609375 0.57421875 C201.0488147 0.58557861 201.0488147 0.58557861 202.12280273 0.59716797 C210.4334836 0.86045003 216.4599181 3.67786792 222.55078125 9.23046875 C229.21667984 16.79178655 230.75835232 25.0274883 230.515625 34.7890625 C230.06308982 41.88730863 227.42231137 48.01949992 222.11791992 52.82739258 C216.04360151 57.82084956 209.57543482 62.19373263 203.00585938 66.50341797 C199.72603594 68.65569225 196.45757878 70.82514866 193.1875 72.9921875 C192.47651154 73.46280609 191.76552307 73.93342468 191.0329895 74.41830444 C182.45516424 80.10283665 173.93213321 85.86849508 165.40591431 91.63000488 C149.20949409 102.57398777 132.98589835 113.47475366 116.70454407 124.29193115 C112.60835308 127.01586169 108.52212112 129.75433904 104.43969727 132.49885559 C101.38977405 134.54887221 98.33756029 136.59546483 95.28521729 138.64187622 C93.8159744 139.62825165 92.34780984 140.61623544 90.88079834 141.60592651 C88.84781561 142.97719134 86.81106501 144.34268149 84.7734375 145.70703125 C84.17277969 146.11434982 83.57212189 146.5216684 82.95326233 146.94132996 C74.86568659 152.3345134 67.39567807 153.4606765 57.88117981 151.56557083 C51.60666967 150.07423854 45.43948563 148.20350841 39.26171875 146.359375 C37.26211898 145.77711761 35.26200676 145.19661748 33.26141357 144.61778259 C28.02618125 143.09905879 22.79684254 141.56103094 17.56890869 140.01739502 C9.19081177 137.54632576 0.80506576 135.10151703 -7.58264923 132.66332817 C-10.49676139 131.81264441 -13.40764751 130.95156787 -16.31829834 130.08912659 C-18.11542896 129.56309693 -19.91264538 129.03736029 -21.70996094 128.51196289 C-22.50809708 128.27243896 -23.30623322 128.03291504 -24.1285553 127.78613281 C-34.63736908 124.64882332 -34.63736908 124.64882332 -44.94140625 126.94921875 C-45.69550781 127.32949219 -46.44960937 127.70976562 -47.2265625 128.1015625 C-47.77183594 128.40191406 -48.31710938 128.70226562 -48.87890625 129.01171875 C-48.54890625 129.79546875 -48.21890625 130.57921875 -47.87890625 131.38671875 C-46.20431961 137.45709533 -46.00512907 142.70812437 -48.25390625 148.63671875 C-53.92559546 157.04646482 -64.31255417 162.46151264 -72.58203125 168.07421875 C-76.25611983 170.5730031 -79.88616322 173.12887392 -83.50488281 175.70703125 C-86.32608436 177.71299501 -89.16334388 179.6956679 -92 181.6796875 C-93.67651008 182.86823207 -95.32660494 184.09383696 -96.97265625 185.32421875 C-102.6853092 189.39530476 -106.91945414 190.77480283 -113.95703125 190.6484375 C-121.97429438 188.90136011 -125.61416208 184.37446171 -130.00390625 177.88671875 C-131.14155929 176.25885749 -132.27959073 174.63126062 -133.41796875 173.00390625 C-133.99192383 172.17342773 -134.56587891 171.34294922 -135.15722656 170.48730469 C-137.84445521 166.62336559 -140.61321675 162.81967355 -143.37890625 159.01171875 C-144.46267986 157.51203683 -145.54601214 156.01203587 -146.62890625 154.51171875 C-147.43328125 153.39796875 -147.43328125 153.39796875 -148.25390625 152.26171875 C-149.87890625 150.01171875 -151.50390625 147.76171875 -153.12890625 145.51171875 C-153.66523682 144.76913818 -154.20156738 144.02655762 -154.75415039 143.26147461 C-155.83678879 141.76237425 -156.91930845 140.26318813 -158.00170898 138.76391602 C-160.71970448 134.99943707 -163.43978693 131.23649971 -166.1640625 127.4765625 C-175.60518757 114.43988846 -184.93032359 101.32678923 -194.06640625 88.07421875 C-194.53643066 87.39343262 -195.00645508 86.71264648 -195.49072266 86.01123047 C-198.51663278 81.6052791 -200.05160922 79.15857902 -200.19140625 73.82421875 C-200.22878906 72.90253906 -200.26617187 71.98085938 -200.3046875 71.03125 C-199.54456896 65.64068459 -197.08857914 62.13650231 -193.20703125 58.52734375 C-192.19125 57.7796875 -191.17546875 57.03203125 -190.12890625 56.26171875 C-189.56453857 55.84253174 -189.0001709 55.42334473 -188.41870117 54.99145508 C-183.4301352 51.32149468 -178.31903095 47.82113946 -173.19458008 44.34448242 C-167.05679969 40.17460723 -161.05377879 35.82938285 -155.08129883 31.42651367 C-146.77191646 25.35227094 -140.58209288 21.36725564 -129.87890625 23.01171875 C-126.75607535 24.21167267 -124.20699702 25.59408603 -121.87890625 28.01171875 C-121.18180857 29.66588834 -120.51186787 31.33196228 -119.87890625 33.01171875 C-98.85878448 23.88321407 -77.85868618 14.71402465 -56.93457031 5.3671875 C-53.56360064 3.86180169 -50.189903 2.36272151 -46.81365967 0.86920166 C-45.51113339 0.29192188 -44.20959421 -0.28758971 -42.90899658 -0.86920166 C-41.01775699 -1.71382088 -39.12273161 -2.54933 -37.2265625 -3.3828125 C-36.14511963 -3.86210205 -35.06367676 -4.3413916 -33.94946289 -4.83520508 C-22.17103679 -9.25831921 -11.17101349 -4.28280739 0 0 Z M-36.58984375 7.53515625 C-37.83517632 8.09521111 -37.83517632 8.09521111 -39.10566711 8.6665802 C-41.82785208 9.89360394 -44.54053386 11.14034565 -47.25390625 12.38671875 C-50.11646541 13.68149935 -52.98154614 14.97057653 -55.84690857 16.25914001 C-57.82659376 17.14953704 -59.80555907 18.04153624 -61.78382874 18.93507385 C-72.64930769 23.83473888 -83.60259577 28.52478864 -94.56640625 33.19921875 C-96.41915441 33.99061418 -98.27185747 34.78211522 -100.12451172 35.57373047 C-104.37484505 37.38905712 -108.6264431 39.20138724 -112.87890625 41.01171875 C-111.70337262 44.15175058 -110.4682748 46.86114013 -108.515625 49.5859375 C-108.04777588 50.24392334 -107.57992676 50.90190918 -107.09790039 51.57983398 C-106.59250732 52.27923096 -106.08711426 52.97862793 -105.56640625 53.69921875 C-105.03587646 54.44179932 -104.50534668 55.18437988 -103.95874023 55.94946289 C-102.27121709 58.30774124 -100.5758959 60.66024542 -98.87890625 63.01171875 C-97.80336465 64.50649548 -96.72784349 66.00128691 -95.65234375 67.49609375 C-92.40220816 72.00686999 -89.1414865 76.50993888 -85.87890625 81.01171875 C-83.69022993 84.03170239 -81.50273131 87.05253247 -79.31640625 90.07421875 C-78.78345947 90.80979004 -78.2505127 91.54536133 -77.70141602 92.30322266 C-74.95968261 96.09626614 -72.24523348 99.90558682 -69.5703125 103.74609375 C-69.03414307 104.51429443 -68.49797363 105.28249512 -67.94555664 106.07397461 C-66.93368743 107.52736382 -65.92605016 108.98371274 -64.92358398 110.44360352 C-62.19114267 114.36761411 -59.37104705 117.74099993 -55.87890625 121.01171875 C-55.151875 120.57859375 -54.42484375 120.14546875 -53.67578125 119.69921875 C-52.6703125 119.14234375 -51.66484375 118.58546875 -50.62890625 118.01171875 C-49.654375 117.45484375 -48.67984375 116.89796875 -47.67578125 116.32421875 C-38.71084384 112.49909443 -28.44997906 115.47999749 -19.56640625 118.07421875 C-18.43976563 118.39003906 -17.313125 118.70585937 -16.15234375 119.03125 C-7.92265347 121.35883917 0.25860383 123.84635501 8.42602539 126.3828125 C16.78318155 128.961551 25.21363569 131.21865961 33.67138672 133.44165039 C41.20329242 135.43959824 48.63084037 137.65508768 55.98535156 140.23461914 C61.37006664 142.04632806 66.75752234 143.53430957 72.15235901 141.09222412 C77.78839507 137.8704791 83.19973035 134.39901906 88.5625 130.7421875 C89.43857407 130.14932449 90.31464813 129.55646149 91.2172699 128.94563293 C94.04162047 127.03344766 96.8625626 125.11629683 99.68359375 123.19921875 C102.63107342 121.20236546 105.57946976 119.20687084 108.52792358 117.2114563 C110.45872788 115.90464317 112.38925224 114.59741635 114.31948853 113.2897644 C120.89978899 108.83277096 127.49797618 104.40488919 134.12109375 100.01171875 C147.46334572 91.15156101 160.72668099 82.17386079 174 73.2109375 C193.50500612 60.0416366 193.50500612 60.0416366 203.26220703 53.59765625 C213.80312331 47.11877794 213.80312331 47.11877794 220.12109375 37.01171875 C221.05771538 31.05286735 221.04449617 25.80519081 217.93359375 20.51171875 C214.29223124 15.55370539 209.73971762 11.69511211 203.59765625 10.53515625 C194.90117845 10.08246289 189.18207634 13.10097972 182.09619141 17.72412109 C180.03002335 19.071089 177.94411682 20.38193723 175.8515625 21.6875 C172.67607486 23.67389218 169.51055355 25.67497703 166.3515625 27.6875 C160.77111796 31.23984913 155.16792548 34.75519967 149.55859375 38.26171875 C148.5624707 38.88457764 147.56634766 39.50743652 146.54003906 40.14916992 C140.00412765 44.22917885 133.44927419 48.27759508 126.88232422 52.30737305 C123.57492613 54.33831101 120.27150124 56.37557886 116.96875 58.4140625 C113.53209938 60.53480656 110.0863347 62.63604144 106.6171875 64.703125 C100.42448964 68.44623191 95.7856326 72.0061312 91.6328125 78 C88.2425503 82.51158923 83.43835039 85.27207575 78.12109375 87.01171875 C67.21940697 88.19263123 58.26855579 86.37245819 48.09033203 82.70849609 C44.94115778 81.59422095 41.75009107 80.62199126 38.55859375 79.63671875 C37.23044996 79.22141425 35.9023257 78.80604728 34.57421875 78.390625 C29.32681426 76.75951276 24.06709674 75.16909964 18.80859375 73.57421875 C11.27980659 71.28711897 3.75564775 68.98628963 -3.75390625 66.63671875 C-4.56255127 66.38607666 -5.37119629 66.13543457 -6.2043457 65.87719727 C-11.7621482 64.1284768 -11.7621482 64.1284768 -12.87890625 63.01171875 C-12.91971408 61.01213511 -12.92144981 59.01126621 -12.87890625 57.01171875 C-8.24840741 55.56594191 -4.77061596 56.65677642 -0.33203125 58.14453125 C0.39743713 58.37824432 1.12690552 58.6119574 1.878479 58.85275269 C4.21307289 59.60308464 6.5420859 60.36924324 8.87109375 61.13671875 C11.14794079 61.87607467 13.42585799 62.61204537 15.70404053 63.34727478 C17.2255286 63.8383613 18.74656436 64.33085129 20.26715088 64.82472229 C26.24808406 66.75861584 32.26508315 68.54564101 38.30224609 70.29475403 C42.81794911 71.60912994 47.26959554 73.04603493 51.7121582 74.58618164 C61.05519399 77.78012003 69.81917667 79.95958403 79.55859375 76.94921875 C83.82281192 73.72505379 87.41291167 70.13626499 89.12109375 65.01171875 C89.78557515 58.86316301 90.34585914 52.81503508 86.74609375 47.51171875 C79.38136042 39.70174386 67.72096289 36.80997321 57.89453125 33.15234375 C56.41914379 32.59859796 54.94393804 32.04436782 53.46890259 31.48968506 C49.5969229 30.03510592 45.72254405 28.58702842 41.84759521 27.14038086 C37.22520629 25.41317887 32.60589844 23.67775567 27.9860878 21.94367218 C24.23955021 20.537918 20.49202715 19.13491989 16.74212646 17.73815918 C10.09135776 15.25963637 3.45087581 12.76317343 -3.15917969 10.17773438 C-4.25692719 9.75248474 -5.35467468 9.32723511 -6.48568726 8.88909912 C-8.47588548 8.11620167 -10.46217481 7.33311634 -12.44326782 6.53717041 C-21.57736418 3.01010454 -27.7312363 3.3894004 -36.58984375 7.53515625 Z " fill="#3C4C83" transform="translate(206.87890625,315.98828125)"/>
<path d="M0 0 C1.10453522 -0.00524185 2.20907043 -0.0104837 3.34707642 -0.0158844 C5.67864137 -0.02229472 8.01023871 -0.02098048 10.34179688 -0.01245117 C13.89512219 -0.00395156 17.44683373 -0.03270205 21 -0.06445312 C23.27083285 -0.06606563 25.54166854 -0.06548666 27.8125 -0.0625 C29.3956752 -0.07935097 29.3956752 -0.07935097 31.01083374 -0.09654236 C38.42355825 -0.02707953 44.11642016 1.04991888 49.59765625 6.46875 C50.05269531 7.13777344 50.50773438 7.80679687 50.9765625 8.49609375 C51.44964844 9.16769531 51.92273438 9.83929688 52.41015625 10.53125 C56.75367843 17.8506109 54.86318091 27.89033854 53.0390625 35.74609375 C52.55348948 37.64567341 52.05887205 39.54309592 51.5390625 41.43359375 C52.83714844 41.54445312 54.13523437 41.6553125 55.47265625 41.76953125 C60.3971475 42.32172074 64.90109549 43.52411935 69.6015625 45.05859375 C70.42446777 45.32438232 71.24737305 45.5901709 72.09521484 45.86401367 C80.16005086 48.53493691 87.893082 51.73881639 95.5390625 55.43359375 C96.22178223 55.76198242 96.90450195 56.09037109 97.60791016 56.42871094 C142.04497095 78.11688012 174.92002217 117.20514913 191.5390625 163.43359375 C197.58517768 181.49891123 201.39292314 200.33241506 200.5390625 219.43359375 C201.8384375 219.35109375 203.1378125 219.26859375 204.4765625 219.18359375 C210.83188808 219.2235016 215.86299388 220.99199971 220.58984375 225.3046875 C226.95853151 232.27991696 228.10115282 238.09801177 227.84765625 247.44921875 C226.85930451 260.21021592 220.98756442 272.06122425 211.609375 280.80859375 C199.58954248 290.24302833 188.25328827 292.88892467 173.25726318 292.82800293 C171.82729975 292.83289934 170.39734027 292.83909259 168.96738744 292.84646082 C165.06060325 292.8627887 161.1540218 292.86055709 157.24721551 292.85508585 C153.02483693 292.85240676 148.80251133 292.86696395 144.58015442 292.87918091 C136.31635777 292.90020056 128.05263134 292.90477773 119.78881112 292.90299302 C113.0686231 292.90168357 106.34845692 292.90549889 99.62827301 292.91291809 C97.68989094 292.91501737 95.75150887 292.91711497 93.8131268 292.91921091 C92.3657746 292.9207762 92.3657746 292.9207762 90.88918296 292.92237312 C72.65374526 292.94126175 54.41834782 292.94022961 36.18290439 292.93340379 C19.51899633 292.9278302 2.8552421 292.94864838 -13.80863002 292.98176426 C-30.93775541 293.01553928 -48.06680719 293.03066479 -65.19596648 293.02604723 C-74.80516258 293.02380629 -84.41421653 293.02899066 -94.02338409 293.05393982 C-102.20498227 293.07500231 -110.38636037 293.07849606 -118.56796774 293.05964023 C-122.73791772 293.05051253 -126.90745791 293.04924755 -131.07737541 293.06999588 C-134.90340643 293.08882166 -138.72869537 293.08407455 -142.55469915 293.06145006 C-144.57593398 293.05534163 -146.59719859 293.07356291 -148.61834931 293.09298658 C-163.01094016 292.95489892 -174.89545853 288.27835064 -185.4609375 278.43359375 C-194.96557178 268.02752161 -199.8826529 255.01201067 -199.671875 240.953125 C-199.07839327 233.8643154 -195.83696574 228.06002328 -190.4609375 223.43359375 C-184.52167001 219.64185801 -179.40091455 218.99296029 -172.4609375 219.43359375 C-172.48414063 218.16773438 -172.50734375 216.901875 -172.53125 215.59765625 C-172.48011019 171.90720935 -152.45500014 126.99734825 -122.02490234 96.03710938 C-120.41248232 94.38391319 -118.83675306 92.70051347 -117.26171875 91.01171875 C-92.50036024 64.86987262 -58.53141193 47.75093931 -23.4609375 40.43359375 C-23.6775 39.53898437 -23.8940625 38.644375 -24.1171875 37.72265625 C-28.51368862 18.63044306 -28.51368862 18.63044306 -23.66015625 10.18359375 C-17.42954646 1.09136839 -10.30583343 -0.02855521 0 0 Z M-102.234375 91.359375 C-104.26046246 93.24683543 -106.33990655 95.02980086 -108.4609375 96.80859375 C-130.52344069 116.22888099 -145.13790031 142.92308737 -154.4609375 170.43359375 C-154.88117188 171.66464844 -155.30140625 172.89570313 -155.734375 174.1640625 C-157.80493928 180.80387952 -159.11185058 187.51494667 -160.2109375 194.37109375 C-160.40296753 195.53233765 -160.40296753 195.53233765 -160.59887695 196.71704102 C-161.73139152 204.46107825 -161.4609375 211.35911044 -161.4609375 219.43359375 C-45.3009375 219.43359375 70.8590625 219.43359375 190.5390625 219.43359375 C190.5390625 210.90007988 190.4200684 203.77687143 188.7890625 195.62109375 C188.60569336 194.67387451 188.42232422 193.72665527 188.23339844 192.75073242 C187.68598803 189.97447902 187.11639515 187.2037595 186.5390625 184.43359375 C186.31476563 183.32032715 186.31476563 183.32032715 186.0859375 182.18457031 C183.71064629 170.61052403 179.4358611 160.13778208 174.5390625 149.43359375 C174.09989502 148.46244629 174.09989502 148.46244629 173.65185547 147.47167969 C165.55634734 129.76659996 153.754726 114.6059467 140.5390625 100.43359375 C139.81460937 99.64339844 139.09015625 98.85320312 138.34375 98.0390625 C109.94947688 68.24913866 66.47467289 48.98031815 25.47924805 47.30883789 C-21.40481369 46.18462904 -67.3116925 58.76866315 -102.234375 91.359375 Z M-187.30859375 235.23828125 C-190.23847361 240.81995068 -189.16583309 249.32869652 -187.8046875 255.32421875 C-184.00390297 265.74361081 -176.63936383 273.65018072 -166.91718501 278.77428681 C-158.84548517 282.45805102 -151.97287513 283.13896694 -143.17073059 283.04832458 C-141.76434898 283.05194522 -140.35797163 283.05775709 -138.95160693 283.06554657 C-135.11931622 283.08049393 -131.28770206 283.06457554 -127.45546496 283.04323995 C-123.31025493 283.02566565 -119.16510813 283.03714429 -115.0198822 283.04490662 C-106.91302857 283.05555036 -98.80643584 283.03967666 -90.69962195 283.01476835 C-81.2525898 282.98677285 -71.80560975 282.98549514 -62.358543 282.98532534 C-45.50109863 282.98413934 -28.64377373 282.95920491 -11.78637695 282.9206543 C4.56096835 282.88329447 20.90822682 282.86205728 37.25561523 282.85913086 C38.76662101 282.85885664 38.76662101 282.85885664 40.30815216 282.85857689 C41.31377142 282.85839792 42.31939067 282.85821895 43.35548323 282.85803455 C45.38036899 282.85766913 47.40525474 282.85729675 49.4301405 282.85691738 C50.42881203 282.85673187 51.42748356 282.85654635 52.45641787 282.85635522 C68.0522389 282.85278289 83.64804658 282.83433215 99.24385401 282.81442414 C104.89044353 282.80740953 110.53702987 282.80262226 116.1836228 282.79946279 C125.13892478 282.79440837 134.09416649 282.7829491 143.04943749 282.75816249 C147.13966311 282.74696139 151.22982977 282.73882492 155.32007217 282.73929596 C159.0672293 282.7396053 162.81424711 282.73061986 166.56136779 282.71432794 C168.55237409 282.70799472 170.54340398 282.71133508 172.53441685 282.71506685 C185.07775012 282.64089493 196.31057404 280.61907445 205.7890625 271.80859375 C213.74743084 263.28637341 218.18470997 252.75740289 217.9921875 241.09375 C217.25295643 236.75395381 214.93957455 234.10876722 211.5390625 231.43359375 C208.02077538 229.22266419 205.13197516 229.18127305 201.01970863 229.17632484 C200.36349022 229.17281877 199.7072718 229.1693127 199.03116798 229.16570038 C196.82282907 229.15636471 194.61475262 229.16131517 192.40640259 229.16616821 C190.81092659 229.16243304 189.21545242 229.15783206 187.61998117 229.15243757 C183.22817228 229.14017574 178.83643938 229.14047177 174.44461727 229.14282632 C169.71104692 229.14323368 164.9775012 229.13220309 160.24394226 229.12271118 C150.96734315 229.10608299 141.69076945 229.10060082 132.41415669 229.09948643 C124.87568345 229.09853685 117.3372186 229.09443111 109.79874802 229.08808517 C88.43714683 229.07046814 67.07556577 229.06124708 45.71395727 229.06274612 C44.56182793 229.06282603 43.4096986 229.06290595 42.22265625 229.06298828 C40.49235818 229.06311092 40.49235818 229.06311092 38.72710459 229.06323604 C20.02694991 229.06404917 1.32687573 229.04490595 -17.37325566 229.01671155 C-36.5632876 228.98800624 -55.75328025 228.97416994 -74.94333422 228.9758991 C-85.7215894 228.9765638 -96.49976019 228.97103668 -107.27799606 228.949543 C-116.45393194 228.93136219 -125.62974517 228.92695833 -134.80569123 228.94056185 C-139.48896446 228.94710707 -144.17200216 228.9471528 -148.85525322 228.92985535 C-153.14113178 228.91418811 -157.42658681 228.91692284 -161.71245463 228.93442361 C-163.26425037 228.93750756 -164.81607722 228.93380886 -166.36783628 228.92270346 C-168.47570582 228.90861533 -170.58208292 228.91914012 -172.68990135 228.93581581 C-173.86106888 228.93538108 -175.03223641 228.93494634 -176.23889387 228.93449843 C-180.92655041 229.66061754 -183.96321243 231.9706995 -187.30859375 235.23828125 Z " fill="#3D4D83" transform="translate(277.4609375,5.56640625)"/>
<path d="M0 0 C5.34479381 3.11366467 9.19045357 7.31608534 11.60546875 13.0390625 C12.01171875 15.73828125 12.01171875 15.73828125 12.10546875 18.7265625 C12.1828125 20.18642578 12.1828125 20.18642578 12.26171875 21.67578125 C10.73409751 29.50484012 5.51760123 34.66448153 -0.86499023 39.04614258 C-1.74098877 39.62130615 -2.6169873 40.19646973 -3.51953125 40.7890625 C-4.47093994 41.43319092 -5.42234863 42.07731934 -6.40258789 42.7409668 C-9.32864141 44.71066037 -12.26647965 46.66020387 -15.21185303 48.60076904 C-17.64895152 50.20671479 -20.08357779 51.81637029 -22.51806641 53.42626953 C-30.17326299 58.48614467 -37.83057081 63.54267051 -45.50634766 68.57128906 C-54.16186336 74.24427961 -62.78941701 79.94445716 -71.29940796 85.83392334 C-79.53373058 91.53131446 -87.84499665 97.11486073 -96.14916992 102.7097168 C-98.9574482 104.60184342 -101.76491385 106.49517095 -104.57226562 108.38867188 C-109.02597239 111.39193605 -113.48264379 114.39076092 -117.94073486 117.38751221 C-120.28555913 118.96571781 -122.62717149 120.5485871 -124.96826172 122.13232422 C-126.32768948 123.04801489 -127.68721995 123.9635531 -129.046875 124.87890625 C-129.65479385 125.29201553 -130.26271271 125.70512482 -130.88905334 126.13075256 C-136.07784618 129.61286331 -140.18189228 130.58332623 -146.39453125 130.0390625 C-149.26286159 129.39198166 -151.99688824 128.44904315 -154.76953125 127.4765625 C-162.49572458 124.89936267 -170.26781676 122.6718367 -178.14453125 120.6015625 C-186.45001594 118.40810614 -194.69079897 116.08679657 -202.89453125 113.5390625 C-211.26324412 110.96249736 -219.65045698 108.46510449 -228.08203125 106.1015625 C-229.65791016 105.64136719 -229.65791016 105.64136719 -231.265625 105.171875 C-241.08917384 102.46665914 -250.37332633 101.20191211 -259.64453125 106.0390625 C-260.7428125 106.5959375 -261.84109375 107.1528125 -262.97265625 107.7265625 C-263.771875 108.1596875 -264.57109375 108.5928125 -265.39453125 109.0390625 C-271.20593768 101.73217 -276.66939171 94.27541382 -281.89453125 86.5390625 C-285.58471742 81.07642893 -289.32127527 75.72320647 -293.39453125 70.5390625 C-298.06014263 64.59343761 -302.31630189 58.41356912 -306.54956055 52.15454102 C-310.42389728 46.42994717 -314.39185734 40.78629653 -318.5 35.22680664 C-321.39453125 31.25350399 -321.39453125 31.25350399 -321.39453125 29.0390625 C-316.9989141 27.18540219 -312.60233536 25.33404914 -308.20483398 23.48486328 C-306.70781976 22.85496938 -305.21107414 22.22443672 -303.71459961 21.59326172 C-301.56824281 20.68811158 -299.42094237 19.78523478 -297.2734375 18.8828125 C-296.60051163 18.59845337 -295.92758575 18.31409424 -295.23426819 18.02111816 C-290.50840296 16.0390625 -290.50840296 16.0390625 -289.39453125 16.0390625 C-289.23597656 16.76609375 -289.07742188 17.493125 -288.9140625 18.2421875 C-283.51362932 41.51477248 -270.46626837 60.07128254 -250.33642578 72.85839844 C-237.8768798 80.43375227 -225.16453102 86.46016299 -210.89453125 89.6640625 C-210.02183594 89.86773437 -209.14914063 90.07140625 -208.25 90.28125 C-206.48742096 90.6886016 -204.72228571 91.08504188 -202.95483398 91.47070312 C-201.35147356 91.82663171 -199.75313186 92.20701295 -198.16430664 92.62304688 C-190.30389054 94.52695975 -182.37654462 94.34063422 -174.33862305 94.29980469 C-171.8615612 94.28918905 -169.38524143 94.29968986 -166.90820312 94.3125 C-127.0065122 94.34926614 -89.14552747 81.80065867 -58.39453125 56.0390625 C-57.6571875 55.44867188 -56.91984375 54.85828125 -56.16015625 54.25 C-42.88669171 43.18877955 -28.56363994 24.39406876 -26.09765625 6.9375 C-24.71559127 3.20592456 -20.94108517 1.97231989 -17.57421875 0.25390625 C-11.71736264 -1.98378693 -5.88504451 -2.36169812 0 0 Z " fill="#E5E5FC" transform="translate(415.39453125,327.9609375)"/>
<path d="M0 0 C4.54569074 3.61378857 7.72705839 8.53995216 11.0625 13.25 C11.62904297 14.04212891 12.19558594 14.83425781 12.77929688 15.65039062 C17.0394449 21.61649337 21.2623302 27.60922332 25.48095703 33.60473633 C30.7091678 41.02776881 36.03179929 48.38165171 41.35888672 55.73388672 C44.07648165 59.48644788 46.78800502 63.24339079 49.5 67 C53.39069654 72.38897719 57.28416376 77.77591977 61.18310547 83.15893555 C62.82548322 85.43148392 64.45973672 87.70971522 66.09375 89.98828125 C67.82622005 92.39855209 69.58719883 94.75782966 71.40625 97.10546875 C74.17373017 100.73504095 75.85606215 103.07240051 76.5625 107.625 C74.06620449 113.01699829 69.76863262 115.67183903 65 119 C63.49471607 120.06629954 61.98951413 121.13271482 60.484375 122.19921875 C56.20226571 125.21937913 51.89972548 128.20932355 47.59375 131.1953125 C42.80737405 134.52559215 38.05159588 137.89915465 33.29272461 141.26855469 C32.63796143 141.73165039 31.98319824 142.19474609 31.30859375 142.671875 C30.73939209 143.0750293 30.17019043 143.47818359 29.58374023 143.89355469 C25.68493358 146.61737028 23.79814634 147.67174049 19 147 C14.40384186 143.01666295 10.99456926 138.15253281 7.4375 133.25 C6.82398682 132.41090088 6.21047363 131.57180176 5.57836914 130.70727539 C1.14762253 124.62894321 -3.21019639 118.50077665 -7.53173828 112.34448242 C-11.12829287 107.22209877 -14.76897246 102.13357092 -18.4375 97.0625 C-18.97697266 96.31677734 -19.51644531 95.57105469 -20.07226562 94.80273438 C-21.7141367 92.53464311 -23.35689256 90.26719572 -25 88 C-32.01608554 78.31905112 -39.01196131 68.62748989 -45.86743164 58.83178711 C-48.73425841 54.74654627 -51.69060005 50.75906811 -54.77319336 46.83325195 C-56.75266203 43.87527578 -57.13266363 41.5155863 -57 38 C-53.83361086 32.97251512 -49.23833435 30.19664491 -44.375 27 C-42.66399291 25.8536071 -40.95439259 24.70511222 -39.24609375 23.5546875 C-38.37581543 22.96913086 -37.50553711 22.38357422 -36.60888672 21.78027344 C-32.49503432 18.97302922 -28.46488275 16.05435506 -24.4375 13.125 C-23.68807129 12.58335205 -22.93864258 12.0417041 -22.16650391 11.48364258 C-19.04395559 9.22490398 -15.93778122 6.95296787 -12.86328125 4.62890625 C-11.56970703 3.66791016 -11.56970703 3.66791016 -10.25 2.6875 C-9.55390625 2.15511719 -8.8578125 1.62273437 -8.140625 1.07421875 C-5.15081955 -0.42613983 -3.30403557 -0.52102099 0 0 Z " fill="#9987FA" transform="translate(74,349)"/>
<path d="M0 0 C2.8515625 1.4375 2.8515625 1.4375 5.25 2.9140625 C7.50358119 4.09119655 7.50358119 4.09119655 10.02734375 3.0625 C10.83558594 2.65 11.64382813 2.2375 12.4765625 1.8125 C22.01045831 -2.47283873 33.47327484 -2.8686888 43.4140625 0.375 C52.51253048 4.28214991 58.76951262 10.15667879 63.4765625 18.8125 C63.89035156 19.56144531 64.30414063 20.31039062 64.73046875 21.08203125 C69.13875781 30.34404625 68.88839358 40.44044046 65.6784668 50.01025391 C57.11551732 72.99976311 38.83021677 89.11425002 18.4765625 101.8125 C17.88149902 102.20228027 17.28643555 102.59206055 16.67333984 102.99365234 C12.75591604 105.44217663 10.07125245 106.56533606 5.4765625 105.8125 C2.95107842 104.61484776 0.75315582 103.42397785 -1.5859375 101.9375 C-2.23498047 101.53619873 -2.88402344 101.13489746 -3.55273438 100.72143555 C-10.21906062 96.51928077 -16.41152359 91.77523789 -22.5234375 86.8125 C-23.57144531 85.97912109 -23.57144531 85.97912109 -24.640625 85.12890625 C-36.69159086 75.24711424 -48.6525497 59.67660341 -50.5234375 43.8125 C-51.37760438 31.36794563 -50.19269341 21.62002113 -42.15234375 11.625 C-31.48494769 -0.24471648 -15.45930183 -5.21023033 0 0 Z " fill="#F9EAB2" transform="translate(283.5234375,109.1875)"/>
<path d="M0 0 C2.8515625 1.4375 2.8515625 1.4375 5.25 2.9140625 C7.50358119 4.09119655 7.50358119 4.09119655 10.02734375 3.0625 C10.83558594 2.65 11.64382813 2.2375 12.4765625 1.8125 C22.01045831 -2.47283873 33.47327484 -2.8686888 43.4140625 0.375 C52.51253048 4.28214991 58.76951262 10.15667879 63.4765625 18.8125 C63.89035156 19.56144531 64.30414063 20.31039062 64.73046875 21.08203125 C69.13875781 30.34404625 68.88839358 40.44044046 65.6784668 50.01025391 C57.11551732 72.99976311 38.83021677 89.11425002 18.4765625 101.8125 C17.88149902 102.20228027 17.28643555 102.59206055 16.67333984 102.99365234 C12.75591604 105.44217663 10.07125245 106.56533606 5.4765625 105.8125 C2.95107842 104.61484776 0.75315582 103.42397785 -1.5859375 101.9375 C-2.23498047 101.53619873 -2.88402344 101.13489746 -3.55273438 100.72143555 C-10.21906062 96.51928077 -16.41152359 91.77523789 -22.5234375 86.8125 C-23.57144531 85.97912109 -23.57144531 85.97912109 -24.640625 85.12890625 C-36.69159086 75.24711424 -48.6525497 59.67660341 -50.5234375 43.8125 C-51.37760438 31.36794563 -50.19269341 21.62002113 -42.15234375 11.625 C-31.48494769 -0.24471648 -15.45930183 -5.21023033 0 0 Z M-35.5234375 18.8125 C-41.28401005 26.77074762 -41.3372298 35.33696433 -40.5234375 44.8125 C-38.32603364 53.13898549 -33.80665216 60.10858896 -28.5234375 66.8125 C-27.66492188 67.91851562 -27.66492188 67.91851562 -26.7890625 69.046875 C-20.95999544 76.07164812 -13.87079484 81.47743985 -6.5234375 86.8125 C-5.57235107 87.50400146 -5.57235107 87.50400146 -4.60205078 88.20947266 C-2.73912585 89.54230085 -0.85694399 90.83977737 1.0390625 92.125 C1.89588623 92.73021484 1.89588623 92.73021484 2.77001953 93.34765625 C4.58742382 94.59667817 4.58742382 94.59667817 7.4765625 95.8125 C22.65972053 92.55730532 41.06469619 73.83095762 49.3515625 61.3125 C55.4311822 51.20369837 58.53439298 41.64232253 57.4765625 29.8125 C55.54670246 22.64444843 51.3847077 16.19943678 45.0078125 12.3046875 C37.43913803 8.40904623 30.252137 6.10435059 21.80859375 8.6015625 C17.54228733 10.25262939 14.12539129 12.0585214 10.4765625 14.8125 C6.67903552 15.65639488 4.61539371 14.43171983 1.4765625 12.4375 C0.8371875 11.99664062 0.1978125 11.55578125 -0.4609375 11.1015625 C-12.94632222 3.29819705 -26.29536093 8.83281538 -35.5234375 18.8125 Z " fill="#3E4F83" transform="translate(283.5234375,109.1875)"/>
<path d="M0 0 C0.88449326 -0.00953201 1.76898651 -0.01906403 2.68028259 -0.02888489 C4.10226707 -0.02751778 4.10226707 -0.02751778 5.55297852 -0.02612305 C6.53428238 -0.03040817 7.51558624 -0.0346933 8.52662659 -0.03910828 C10.60026275 -0.04484666 12.67391904 -0.04535546 14.74755859 -0.04101562 C17.91677257 -0.03785686 21.08505188 -0.06131713 24.25415039 -0.08666992 C26.27042526 -0.08894311 28.28670263 -0.08964632 30.30297852 -0.08862305 C31.72192665 -0.10243767 31.72192665 -0.10243767 33.16954041 -0.11653137 C39.24105642 -0.0739263 42.69079746 0.76109717 47.30688477 4.8996582 C50.86341002 12.01270871 47.68748689 19.72056738 45.36938477 26.74731445 C45.08063477 27.58133789 44.79188477 28.41536133 44.49438477 29.2746582 C43.78983154 29.2039209 43.08527832 29.13318359 42.359375 29.06030273 C34.40873909 28.32248787 26.53859431 28.12341697 18.55688477 28.1496582 C17.38448242 28.14579102 16.21208008 28.14192383 15.00415039 28.13793945 C7.1246825 28.14664124 -0.65935886 28.55876783 -8.50561523 29.2746582 C-9.18179047 26.90200759 -9.84669749 24.52710466 -10.50561523 22.1496582 C-10.69639648 21.48450195 -10.88717773 20.8193457 -11.08374023 20.1340332 C-12.63348198 14.4885454 -13.58892926 10.28652711 -10.75561523 5.0246582 C-7.54865259 1.10503719 -5.00942309 0.02976359 0 0 Z " fill="#F9EAB2" transform="translate(273.505615234375,15.725341796875)"/>
<path d="M0 0 C2.60880189 0.07589242 3.83497043 0.18149813 6.125 1.5 C7.0625 3.3125 7.0625 3.3125 6.875 5.875 C6.0625 8.3125 6.0625 8.3125 4.0625 10.3125 C-2.968337 10.87050294 -2.968337 10.87050294 -6 9.125 C-6.9375 7.3125 -6.9375 7.3125 -6.75 4.75 C-5.36351118 0.59053353 -4.41600087 0.35047626 0 0 Z " fill="#48588A" transform="translate(366.9375,118.6875)"/>
<path d="M0 0 C1.9375 1.1875 1.9375 1.1875 3 3 C3.3125 5.5625 3.3125 5.5625 3 8 C1 10 1 10 -1.09375 10.265625 C-1.8878125 10.26046875 -2.681875 10.2553125 -3.5 10.25 C-4.2940625 10.25515625 -5.088125 10.2603125 -5.90625 10.265625 C-8 10 -8 10 -10 8 C-10.3125 5 -10.3125 5 -10 2 C-6.30513897 -0.46324069 -4.36706908 -0.38991688 0 0 Z " fill="#455588" transform="translate(220,119)"/>
<path d="M0 0 C3.89369312 0.0846455 5.55179595 0.58627318 8.4375 3.25 C10 6 10 6 9.8125 8.75 C9 11 9 11 8 12 C3.90980412 12.55775398 2.42469193 12.31625995 -0.9375 9.8125 C-3 7 -3 7 -2.9375 4.3125 C-2 2 -2 2 0 0 Z " fill="#465688" transform="translate(222,96)"/>
<path d="M0 0 C3 0.25 3 0.25 5 2.25 C5.55800294 9.280837 5.55800294 9.280837 3.8125 12.3125 C2 13.25 2 13.25 -0.5625 13.0625 C-3 12.25 -3 12.25 -5 10.25 C-5.265625 8.375 -5.265625 8.375 -5.25 6.25 C-5.25515625 5.54875 -5.2603125 4.8475 -5.265625 4.125 C-4.77431879 0.65695617 -3.28862917 0.27405243 0 0 Z " fill="#425386" transform="translate(336,86.75)"/>
<path d="M0 0 C1.3303125 0.4021875 1.3303125 0.4021875 2.6875 0.8125 C3.73832025 4.57793923 4.0266456 6.1884721 2.125 9.6875 C-0.3125 11.8125 -0.3125 11.8125 -3.4375 12.25 C-6.3125 11.8125 -6.3125 11.8125 -8.3125 9.8125 C-8.75 7.5 -8.75 7.5 -8.3125 4.8125 C-4.5644685 -0.25836614 -4.5644685 -0.25836614 0 0 Z " fill="#415185" transform="translate(360.3125,96.1875)"/>
<path d="M0 0 C3.0625 0.1875 3.0625 0.1875 5.0625 2.1875 C5.328125 4.28125 5.328125 4.28125 5.3125 6.6875 C5.31765625 7.4815625 5.3228125 8.275625 5.328125 9.09375 C5.0625 11.1875 5.0625 11.1875 3.0625 13.1875 C0.5625 13.4375 0.5625 13.4375 -1.9375 13.1875 C-3.9375 11.1875 -3.9375 11.1875 -4.16796875 8.83984375 C-4.15378906 7.94394531 -4.13960937 7.04804687 -4.125 6.125 C-4.11855469 5.22652344 -4.11210937 4.32804687 -4.10546875 3.40234375 C-3.84796993 0.00695232 -3.46937115 0.22144922 0 0 Z " fill="#415185" transform="translate(246.9375,86.8125)"/>
</svg>
